<svg preserveAspectRatio="none" width="100%" height="100%" overflow="visible" style="display: block;" viewBox="0 0 300.492 259.239" fill="none" xmlns="http://www.w3.org/2000/svg">
<g id="Vector 808497990" style="mix-blend-mode:plus-darker">
<path d="M47.5755 258.182C42.4751 260.095 40.3496 258.979 39.9244 258.182L30.8793 193.235C40.851 157.577 61.0016 85.5923 61.8301 82.9229C62.8656 79.5861 61.0246 76.7096 60.1041 76.8246C59.3677 76.9167 24.0294 78.8625 6.4523 79.8239L0 46.0878L62.8637 11.9828L278.554 0L300.492 79.8239L235.979 112.656L140.98 118.872L148.791 161.111C145.39 163.927 135.848 173.13 124.882 187.411C113.915 201.693 108.517 220.034 107.189 227.419C89.4428 236.877 52.676 256.27 47.5755 258.182Z" fill="url(#paint0_linear_0_4)"/>
</g>
<defs>
<linearGradient id="paint0_linear_0_4" x1="-28.1629" y1="282.541" x2="273.131" y2="295.021" gradientUnits="userSpaceOnUse">
<stop stop-color="#5FD55F"/>
<stop offset="1" stop-color="white" stop-opacity="0"/>
</linearGradient>
</defs>
</svg>
