<svg preserveAspectRatio="none" width="100%" height="100%" overflow="visible" style="display: block;" viewBox="0 0 277.307 451.069" fill="none" xmlns="http://www.w3.org/2000/svg">
<g id="Vector 808497995" style="mix-blend-mode:hue">
<path d="M131.105 446.786L50.6539 353.905L71.9886 277.934L37.8623 152.11L0 106.305L21.3574 34.7176L84.0522 3.4924C108.612 2.25614 158.394 -0.171187 161.045 0.00955899C163.696 0.190305 163.941 3.12541 163.732 4.57038C146.111 67.7915 110.245 195.922 107.75 202.672C105.254 209.422 108.789 214.766 110.869 216.593C165.87 279.439 276.118 405.623 277.102 407.591C278.086 409.559 275.286 412.394 273.763 413.565L213.14 445.39C191.795 447.173 147.626 450.802 141.71 451.054C135.795 451.306 132.175 448.313 131.105 446.786Z" fill="var(--fill-0, #F7C0E7)"/>
</g>
</svg>
